<?xml version="1.0"?>
<!DOCTYPE svg PUBLIC "-//W3C//DTD SVG 1.1//EN" "http://www.w3.org/Graphics/SVG/1.1/DTD/svg11.dtd">
<!--Phoronix Test Suite v10.2.2 [ http://www.phoronix-test-suite.com/ ]-->
<svg xmlns="http://www.w3.org/2000/svg" xmlns:xlink="http://www.w3.org/1999/xlink" version="1.1" font-family="sans-serif, droid-sans, helvetica, verdana, tahoma" viewbox="0 0 729 137" width="729" height="137" preserveAspectRatio="xMinYMin meet"><rect x="0" y="0" width="729" height="137" fill="#FEFEFE"/><rect x="1" y="1" width="728" height="136" fill="#FEFEFE" stroke="#757575" stroke-width="1"/><path d="m74 22v9m-5-16v16m-5-28v28m-23-2h12.5c2.485281 0 4.5-2.014719 4.5-4.5s-2.014719-4.5-4.5-4.5h-8c-2.485281 0-4.5-2.014719-4.5-4.5s2.014719-4.5 4.5-4.5h12.5m-21 5h-11m11 13h-2c-4.970563 0-9-4.029437-9-9v-20m-24 40v-20c0-4.970563 4.0294373-9 9-9 4.970563 0 9 4.029437 9 9s-4.029437 9-9 9h-9" stroke="#000000" stroke-width="4" fill="none" transform="translate(53,28)"/><line x1="185" y1="73" x2="729" y2="73" stroke="#BABABA" stroke-width="96" stroke-dasharray="544,544"/><line x1="365" y1="73" x2="365" y2="121" stroke="#949494" stroke-width="729" stroke-dasharray="16,16"/><line x1="185" y1="73" x2="729" y2="73" stroke="#757575" stroke-width="96" stroke-dasharray="1,543"/><rect x="1" y="1" width="727" height="25" fill="#231f20"/><text x="5" y="19" font-size="17" fill="#FEFEFE" text-anchor="start">encode-flac/pts</text><line x1="1" y1="25" x2="728" y2="25" stroke="#757575" stroke-width="1"/><g font-size="10" font-weight="bold" fill="#065695" text-anchor="end"><a xlink:href="https://openbenchmarking.org/test/pts/encode-flac-1.6.0" target="_blank"><text x="183" y="85">encode-flac: WAV To FLAC</text></a><text x="183" y="101">Standard Error</text><text x="183" y="117">Standard Deviation</text></g><g font-size="10" fill="#065695" font-weight="bold" text-anchor="middle" dominant-baseline="text-before-edge"><text x="457" y="49">Take measure how many time it takes to codify a show-file from WAV to FLAC</text></g><g fill="#BABABA"/><g text-anchor="middle" font-size="10" fill="#065695"><text x="457" y="86">35.144</text><text x="457" y="102">0.18</text><text x="457" y="118">1.16%</text></g><line x1="365" y1="73" x2="365" y2="121" stroke="#949494" stroke-width="729" stroke-dasharray="1,15"/><rect x="0" y="121" width="729" height="16" fill="#231f20"/><a xlink:href="https://www.phoronix-test-suite.com/" target="_blank"><text x="727" y="134" font-size="10" fill="#FFFFFF" text-anchor="end">Phoronix Test Suite 10.2.2</text></a></svg>
