<?xml version="1.0"?>
<!DOCTYPE svg PUBLIC "-//W3C//DTD SVG 1.1//EN" "http://www.w3.org/Graphics/SVG/1.1/DTD/svg11.dtd">
<!--Phoronix Test Suite v10.2.2 [ http://www.phoronix-test-suite.com/ ]-->
<svg xmlns="http://www.w3.org/2000/svg" xmlns:xlink="http://www.w3.org/1999/xlink" version="1.1" font-family="sans-serif, droid-sans, helvetica, verdana, tahoma" viewbox="0 0 600 149" width="600" height="149" preserveAspectRatio="xMinYMin meet"><rect x="0" y="0" width="600" height="149" fill="#FEFEFE"/><g stroke="#757575" stroke-width="1"><line x1="139" y1="64" x2="139" y2="111"/><line x1="139" y1="110" x2="586" y2="110"/></g><a xlink:href="https://www.phoronix-test-suite.com/" target="_blank"><text x="585" y="59" font-size="8" fill="#065695" text-anchor="end" font-weight="bold">Phoronix Test Suite 10.2.2</text></a><polygon points="139,56 148,60.5 148,51.5" fill="#065695" stroke="#949494" stroke-width="1"/><text x="151" y="59" font-size="8" font-weight="bold" fill="#065695" text-anchor="start">Seconds, Fewer Is Better</text><a xlink:href="https://openbenchmarking.org/test/pts/compress-gzip-1.2.0" target="_blank"><text x="6" y="19" font-size="17" fill="#231f20" text-anchor="start" font-weight="bold">Gzip Compression</text></a><text x="6" y="36" font-size="11" font-weight="bold" fill="#231f20" text-anchor="start">Linux Source Tree Archiving To .tar.gz</text><a xlink:href="https://www.phoronix-test-suite.com/" target="_blank"><path d="m74 22v9m-5-16v16m-5-28v28m-23-2h12.5c2.485281 0 4.5-2.014719 4.5-4.5s-2.014719-4.5-4.5-4.5h-8c-2.485281 0-4.5-2.014719-4.5-4.5s2.014719-4.5 4.5-4.5h12.5m-21 5h-11m11 13h-2c-4.970563 0-9-4.029437-9-9v-20m-24 40v-20c0-4.970563 4.0294373-9 9-9 4.970563 0 9 4.029437 9 9s-4.029437 9-9 9h-9" stroke="#231f20" stroke-width="4" fill="none" transform="translate(508,4)"/></a><g font-size="11" fill="#231f20" font-weight="bold"><text x="134" y="85" text-anchor="end">GZIP-Compression</text></g><g font-size="10" fill="#065695" text-anchor="middle"><text x="215" y="125">50</text><text x="289" y="125">100</text><text x="363" y="125">150</text><text x="437" y="125">200</text><text x="511" y="125">250</text></g><g stroke="#BABABA" stroke-width="1"><line x1="215" y1="64" x2="215" y2="105" stroke-dasharray="5,5"/><line x1="215" y1="106" x2="215" y2="115"/><line x1="289" y1="64" x2="289" y2="105" stroke-dasharray="5,5"/><line x1="289" y1="106" x2="289" y2="115"/><line x1="363" y1="64" x2="363" y2="105" stroke-dasharray="5,5"/><line x1="363" y1="106" x2="363" y2="115"/><line x1="437" y1="64" x2="437" y2="105" stroke-dasharray="5,5"/><line x1="437" y1="106" x2="437" y2="115"/><line x1="511" y1="64" x2="511" y2="105" stroke-dasharray="5,5"/><line x1="511" y1="106" x2="511" y2="115"/></g><g stroke="#949494" stroke-width="1"><rect x="139" y="70" height="34" width="319" fill="#2196f3"/></g><g font-size="8" fill="#065695" text-anchor="end"><text y="101" x="134">SE +/- 10.92, N = 10</text></g><g font-size="10" fill="#FFFFFF" font-weight="bold" text-anchor="end"><text x="453" y="93">214.91</text></g><g stroke="#757575" stroke-width="1"><line x1="442" y1="70" x2="442" y2="78"/><line x1="474" y1="70" x2="474" y2="78"/><line x1="442" y1="70" x2="474" y2="70"/></g></svg>
