<?xml version="1.0"?>
<!DOCTYPE svg PUBLIC "-//W3C//DTD SVG 1.1//EN" "http://www.w3.org/Graphics/SVG/1.1/DTD/svg11.dtd">
<!--Phoronix Test Suite v10.2.2 [ http://www.phoronix-test-suite.com/ ]-->
<svg xmlns="http://www.w3.org/2000/svg" xmlns:xlink="http://www.w3.org/1999/xlink" version="1.1" font-family="sans-serif, droid-sans, helvetica, verdana, tahoma" viewbox="0 0 366 461" width="366" height="461" preserveAspectRatio="xMinYMin meet"><rect x="0" y="0" width="366" height="461" fill="#FEFEFE"/><text x="183" y="19" font-size="17" fill="#231f20" text-anchor="middle" font-weight="bold">GZIP-compression</text><a xlink:href="https://www.phoronix-test-suite.com/" target="_blank"><text x="4" y="36" font-size="8" fill="#231f20" text-anchor="start" font-weight="bold">Phoronix Test Suite 10.2.2</text></a><a xlink:href="https://www.phoronix-test-suite.com/" target="_blank"><text x="362" y="36" font-size="8" fill="#231f20" text-anchor="end" font-weight="bold">Phoronix Test Suite 10.2.2</text></a><g fill="#949494"><rect x="0" y="55" width="366" height="16"/><rect x="0" y="87" width="366" height="16"/><rect x="0" y="119" width="366" height="16"/><rect x="0" y="151" width="366" height="16"/><rect x="0" y="183" width="366" height="16"/><rect x="0" y="215" width="366" height="16"/><rect x="0" y="247" width="366" height="16"/><rect x="0" y="279" width="366" height="16"/></g><g fill="none" stroke-width="1" stroke="#005a00"/><g font-size="10" fill="#065695" text-anchor="middle" font-weight="bold"><a xlink:href="http://openbenchmarking.org/s/AMD A8-7410 APU @ 2.20GHz (4 Cores)" target="_blank"><text x="183" y="52">AMD A8-7410 APU @ 2.20GHz (4 Cores)</text></a><a xlink:href="http://openbenchmarking.org/s/HP 81E5 (F.10 BIOS)" target="_blank"><text x="183" y="68">HP 81E5 (F.10 BIOS)</text></a><a xlink:href="http://openbenchmarking.org/s/AMD 16h" target="_blank"><text x="183" y="84">AMD 16h</text></a><a xlink:href="http://openbenchmarking.org/s/3584MB" target="_blank"><text x="183" y="100">3584MB</text></a><a xlink:href="http://openbenchmarking.org/s/500GB Western Digital WD5000LPCX-6" target="_blank"><text x="183" y="116">500GB Western Digital WD5000LPCX-6</text></a><a xlink:href="http://openbenchmarking.org/s/AMD Radeon R4/R5 512MB" target="_blank"><text x="183" y="132">AMD Radeon R4/R5 512MB</text></a><a xlink:href="http://openbenchmarking.org/s/AMD Kabini HDMI/DP" target="_blank"><text x="183" y="148">AMD Kabini HDMI/DP</text></a><a xlink:href="http://openbenchmarking.org/s/Realtek RTL810xE PCI + Realtek RTL8723BE PCIe" target="_blank"><text x="183" y="164">Realtek RTL810xE PCI + Realtek RTL8723BE PCIe</text></a><a xlink:href="http://openbenchmarking.org/s/Fedora 32" target="_blank"><text x="183" y="180">Fedora 32</text></a><a xlink:href="http://openbenchmarking.org/s/5.8.6-201.fc32.x86_64 (x86_64)" target="_blank"><text x="183" y="196">5.8.6-201.fc32.x86_64 (x86_64)</text></a><a xlink:href="http://openbenchmarking.org/s/GNOME Shell 3.36.5" target="_blank"><text x="183" y="212">GNOME Shell 3.36.5</text></a><a xlink:href="http://openbenchmarking.org/s/X Server 1.20.8 + Wayland" target="_blank"><text x="183" y="228">X Server 1.20.8 + Wayland</text></a><a xlink:href="http://openbenchmarking.org/s/4.5 Mesa 20.1.7 (LLVM 10.0.1)" target="_blank"><text x="183" y="244">4.5 Mesa 20.1.7 (LLVM 10.0.1)</text></a><a xlink:href="http://openbenchmarking.org/s/Clang 10.0.0" target="_blank"><text x="183" y="260">Clang 10.0.0</text></a><a xlink:href="http://openbenchmarking.org/s/ext4" target="_blank"><text x="183" y="276">ext4</text></a><a xlink:href="http://openbenchmarking.org/s/1366x768" target="_blank"><text x="183" y="292">1366x768</text></a></g><g font-size="7" fill="#065695" text-anchor="end"><text x="362" y="48">Processor</text><text x="362" y="64">Motherboard</text><text x="362" y="80">Chipset</text><text x="362" y="96">Memory</text><text x="362" y="112">Disk</text><text x="362" y="128">Graphics</text><text x="362" y="144">Audio</text><text x="362" y="160">Network</text><text x="362" y="176">OS</text><text x="362" y="192">Kernel</text><text x="362" y="208">Desktop</text><text x="362" y="224">Display Server</text><text x="362" y="240">OpenGL</text><text x="362" y="256">Compiler</text><text x="362" y="272">File-System</text><text x="362" y="288">Screen Resolution</text></g><g stroke="#757575" stroke-width="1"><line x1="0" y1="39" x2="366" y2="39"/><line x1="0" y1="55" x2="366" y2="55"/><line x1="0" y1="71" x2="366" y2="71"/><line x1="0" y1="87" x2="366" y2="87"/><line x1="0" y1="103" x2="366" y2="103"/><line x1="0" y1="119" x2="366" y2="119"/><line x1="0" y1="135" x2="366" y2="135"/><line x1="0" y1="151" x2="366" y2="151"/><line x1="0" y1="167" x2="366" y2="167"/><line x1="0" y1="183" x2="366" y2="183"/><line x1="0" y1="199" x2="366" y2="199"/><line x1="0" y1="215" x2="366" y2="215"/><line x1="0" y1="231" x2="366" y2="231"/><line x1="0" y1="247" x2="366" y2="247"/><line x1="0" y1="263" x2="366" y2="263"/><line x1="0" y1="279" x2="366" y2="279"/></g><rect x="1" y="295" width="364" height="166" fill="#FEFEFE"/><text x="4" y="316" font-size="9" fill="#231f20" text-anchor="start">- Transparent Huge Pages: madvise</text><text x="4" y="328" font-size="9" fill="#231f20" text-anchor="start"><tspan x="4" y="328" dx="0" dy="0">- Scaling Governor: acpi-cpufreq ondemand (Boost: Enabled) - CPU</tspan><tspan x="4" y="328" dx="5" dy="10"> Microcode: 0x7030105 </tspan></text><text x="4" y="350" font-size="9" fill="#231f20" text-anchor="start"><tspan x="4" y="350" dx="0" dy="0">- SELinux + itlb_multihit: Not affected + l1tf: Not affected +</tspan><tspan x="4" y="350" dx="5" dy="10"> mds: Not affected + meltdown: Not affected + spec_store_bypass:</tspan><tspan x="4" y="350" dx="5" dy="20"> Mitigation of SSB disabled via prctl and seccomp + spectre_v1:</tspan><tspan x="4" y="350" dx="5" dy="30"> Mitigation of usercopy/swapgs barriers and __user pointer</tspan><tspan x="4" y="350" dx="5" dy="40"> sanitization + spectre_v2: Mitigation of Full AMD retpoline</tspan><tspan x="4" y="350" dx="5" dy="50"> STIBP: disabled RSB filling + srbds: Not affected +</tspan><tspan x="4" y="350" dx="5" dy="60"> tsx_async_abort: Not affected </tspan></text></svg>
