<?xml version="1.0"?>
<!DOCTYPE svg PUBLIC "-//W3C//DTD SVG 1.1//EN" "http://www.w3.org/Graphics/SVG/1.1/DTD/svg11.dtd">
<!--Phoronix Test Suite v10.2.2 [ http://www.phoronix-test-suite.com/ ]-->
<svg xmlns="http://www.w3.org/2000/svg" xmlns:xlink="http://www.w3.org/1999/xlink" version="1.1" font-family="sans-serif, droid-sans, helvetica, verdana, tahoma" viewbox="0 0 600 184" width="600" height="184" preserveAspectRatio="xMinYMin meet"><rect x="0" y="0" width="600" height="184" fill="#FEFEFE"/><g stroke="#757575" stroke-width="1"><line x1="331" y1="64" x2="331" y2="111"/><line x1="331" y1="110" x2="586" y2="110"/></g><a xlink:href="https://www.phoronix-test-suite.com/" target="_blank"><text x="585" y="59" font-size="8" fill="#065695" text-anchor="end" font-weight="bold">Phoronix Test Suite 10.2.2</text></a><polygon points="331,56 340,60.5 340,51.5" fill="#065695" stroke="#949494" stroke-width="1"/><text x="343" y="59" font-size="8" font-weight="bold" fill="#065695" text-anchor="start">Seconds, Fewer Is Better</text><a xlink:href="https://openbenchmarking.org/test/pts/dcraw-1.1.1" target="_blank"><text x="6" y="19" font-size="17" fill="#231f20" text-anchor="start" font-weight="bold">dcraw</text></a><text x="6" y="36" font-size="11" font-weight="bold" fill="#231f20" text-anchor="start">RAW To PPM Image Conversion</text><a xlink:href="https://www.phoronix-test-suite.com/" target="_blank"><path d="m74 22v9m-5-16v16m-5-28v28m-23-2h12.5c2.485281 0 4.5-2.014719 4.5-4.5s-2.014719-4.5-4.5-4.5h-8c-2.485281 0-4.5-2.014719-4.5-4.5s2.014719-4.5 4.5-4.5h12.5m-21 5h-11m11 13h-2c-4.970563 0-9-4.029437-9-9v-20m-24 40v-20c0-4.970563 4.0294373-9 9-9 4.970563 0 9 4.029437 9 9s-4.029437 9-9 9h-9" stroke="#231f20" stroke-width="4" fill="none" transform="translate(508,4)"/></a><g font-size="11" fill="#231f20" font-weight="bold"><text x="326" y="85" text-anchor="end">Take measure of the time to convert RAW-NEF images to PPM using dcraw</text></g><g font-size="10" fill="#065695" text-anchor="middle"><text x="375" y="125">30</text><text x="417" y="125">60</text><text x="459" y="125">90</text><text x="501" y="125">120</text><text x="543" y="125">150</text></g><g stroke="#BABABA" stroke-width="1"><line x1="375" y1="64" x2="375" y2="105" stroke-dasharray="5,5"/><line x1="375" y1="106" x2="375" y2="115"/><line x1="417" y1="64" x2="417" y2="105" stroke-dasharray="5,5"/><line x1="417" y1="106" x2="417" y2="115"/><line x1="459" y1="64" x2="459" y2="105" stroke-dasharray="5,5"/><line x1="459" y1="106" x2="459" y2="115"/><line x1="501" y1="64" x2="501" y2="105" stroke-dasharray="5,5"/><line x1="501" y1="106" x2="501" y2="115"/><line x1="543" y1="64" x2="543" y2="105" stroke-dasharray="5,5"/><line x1="543" y1="106" x2="543" y2="115"/></g><g stroke="#949494" stroke-width="1"><rect x="331" y="70" height="34" width="186" fill="#2196f3"/></g><g font-size="8" fill="#065695" text-anchor="end"><text y="101" x="326">SE +/- 1.38, N = 12</text></g><g font-size="10" fill="#FFFFFF" font-weight="bold" text-anchor="end"><text x="512" y="93">131.77</text></g><text x="5" y="150" font-size="8" fill="#231f20" text-anchor="start">1. (CC) gcc options: -lm</text></svg>
